# xmcd
#
# Track frame offsets:
#	150
#	16452
#	40724
#	60434
#
# Disc length: 1062 seconds
#
# Revision: 4
# Processed by: cddbd v1.5.2PL0 Copyright (c) Steve Scherf et al.
# Submitted via: EasyCDDAExtractor 10.2.0.1
#
DISCID=26042404
DTITLE=Mark'oh introducing Flash - The Damned don't cry CDM
DYEAR=2000
DGENRE=Dance
TTITLE0=The Damned don't cry (Radio Cut)
TTITLE1=The Damned don't cry (12'' Mix)
TTITLE2=The Damned don't cry (Substance Remix)
TTITLE3=You
EXTD=
EXTT0=
EXTT1=
EXTT2=
EXTT3=
PLAYORDER=
